<svg xmlns="http://www.w3.org/2000/svg" viewBox="0 0 24 24" id="wechat"><path d="M13.657 13.21a.557.557 0 0 1-1.113 0 .563.563 0 0 1 .56-.573.557.557 0 0 1 .553.573ZM11.865 9.7a.665.665 0 1 0-.018-1.329.687.687 0 0 0-.67.675.67.67 0 0 0 .688.654ZM7.622 8.374a.665.665 0 0 0-.692.643.656.656 0 0 0 .651.682.676.676 0 0 0 .7-.64.686.686 0 0 0-.659-.685Zm8.929 4.26a.553.553 0 0 0-.549.53.546.546 0 1 0 .549-.53ZM22 3v18a1 1 0 0 1-1 1H3a1 1 0 0 1-1-1V3a1 1 0 0 1 1-1h18a1 1 0 0 1 1 1ZM9.88 15.057a4.544 4.544 0 0 1 1.411-3.848 5.673 5.673 0 0 1 3.825-1.545 4.427 4.427 0 0 0-.924-2.345 5.924 5.924 0 0 0-6.474-1.9 5.032 5.032 0 0 0-3.535 3.452 4.528 4.528 0 0 0 1.972 5.083.5.5 0 0 1 .229.665c-.123.41-.193.837-.3 1.324.587-.367 1.082-.7 1.6-.988a1.029 1.029 0 0 1 .557-.094c.53.045 1.059.124 1.639.196Zm9.248-3.052a5.165 5.165 0 0 0-6.68-1 3.9 3.9 0 0 0-.615 6.353 4.738 4.738 0 0 0 3.842 1.254 7.6 7.6 0 0 1 1.417-.265 5.024 5.024 0 0 1 1.361.571 1.507 1.507 0 0 0-.092-.349c-.293-.535-.129-.87.329-1.276a3.794 3.794 0 0 0 .438-5.288Z"></path></svg>